<?xml version="1.0" encoding="utf-8"?>
<svg version="1.1" id="图层_1" xmlns="http://www.w3.org/2000/svg" xmlns:xlink="http://www.w3.org/1999/xlink" x="0px" y="0px"
	 viewBox="0 0 396.9 226.8" style="enable-background:new 0 0 396.9 226.8;" xml:space="preserve">
<style type="text/css">
	.st0{fill:#003F98;}
	.st1{fill-rule:evenodd;clip-rule:evenodd;}
</style>
<g>
	<path class="st0" d="M177.3,200.8c-1.4,0-2.5-1.1-2.5-2.5v-59.8c0-1.4,1.1-2.5,2.5-2.5s2.5,1.1,2.5,2.5v59.8
		C179.8,199.7,178.7,200.8,177.3,200.8z M177.3,119.8c-1.4,0-2.5-1.1-2.5-2.5v-2.1c0-1.4,1.1-2.5,2.5-2.5s2.5,1.1,2.5,2.5v2.1
		C179.8,118.7,178.7,119.8,177.3,119.8L177.3,119.8z M177.3,97.6c-1.4,0-2.5-1.1-2.5-2.5v-2.1c0-1.4,1.1-2.5,2.5-2.5
		s2.5,1.1,2.5,2.5v2.1C179.8,96.5,178.7,97.6,177.3,97.6L177.3,97.6z"/>
	<path class="st0" d="M177.3,91.1c1.1,0,2,0.9,2,2v2.1c0,1.1-0.9,2-2,2s-2-0.9-2-2v-2.1C175.3,92,176.2,91.1,177.3,91.1
		 M177.3,113.3c1.1,0,2,0.9,2,2v2.1c0,1.1-0.9,2-2,2s-2-0.9-2-2v-2.1C175.3,114.2,176.2,113.3,177.3,113.3 M177.3,136.4
		c1.1,0,2,0.9,2,2v59.8c0,1.1-0.9,2-2,2s-2-0.9-2-2v-59.8C175.3,137.3,176.2,136.4,177.3,136.4 M177.3,90.1c-1.7,0-3,1.3-3,3v2.1
		c0,1.7,1.3,3,3,3s3-1.3,3-3v-2.1C180.3,91.4,179,90.1,177.3,90.1L177.3,90.1z M177.3,112.3c-1.7,0-3,1.3-3,3v2.1c0,1.7,1.3,3,3,3
		s3-1.3,3-3v-2.1C180.3,113.6,179,112.3,177.3,112.3z M177.3,135.4c-1.7,0-3,1.3-3,3v59.8c0,1.7,1.3,3,3,3s3-1.3,3-3v-59.8
		C180.3,136.8,179,135.4,177.3,135.4z"/>
	<path class="st0" d="M217.2,106.1c-0.4,0-0.9-0.1-1.2-0.3l-5.4-3.1c-1.2-0.7-1.6-2.2-0.9-3.4s2.2-1.6,3.4-0.9l5.4,3.1
		c1.2,0.7,1.6,2.2,0.9,3.4C218.9,105.7,218.1,106.1,217.2,106.1L217.2,106.1z M192.6,91.9c-0.4,0-0.9-0.1-1.2-0.3l-5.4-3.1
		c-1.2-0.7-1.6-2.2-0.9-3.4c0.7-1.2,2.2-1.6,3.4-0.9c0,0,0,0,0,0l5.4,3.1c1.2,0.7,1.6,2.2,0.9,3.4C194.3,91.4,193.5,91.9,192.6,91.9
		L192.6,91.9z M167.9,77.7c-0.4,0-0.9-0.1-1.2-0.3l-5.4-3.1c-1.2-0.7-1.6-2.2-0.9-3.4c0.7-1.2,2.2-1.6,3.4-0.9c0,0,0,0,0,0l5.4,3.1
		c1.2,0.7,1.6,2.2,0.9,3.4C169.7,77.2,168.8,77.7,167.9,77.7L167.9,77.7z M143.3,63.5c-0.4,0-0.9-0.1-1.2-0.3l-5.4-3.1
		c-1.2-0.7-1.6-2.2-0.9-3.4s2.2-1.6,3.4-0.9l5.4,3.1c1.2,0.7,1.6,2.2,0.9,3.4C145,63,144.2,63.5,143.3,63.5L143.3,63.5z"/>
	<path class="st0" d="M137.9,55.9c0.3,0,0.7,0.1,1,0.3l5.4,3.1c1,0.5,1.3,1.8,0.7,2.7c-0.5,1-1.8,1.3-2.7,0.7c0,0,0,0,0,0l-5.4-3.1
		c-1-0.5-1.3-1.8-0.7-2.7C136.5,56.3,137.2,55.9,137.9,55.9 M162.6,70.1c0.3,0,0.7,0.1,1,0.3l5.4,3.1c1,0.5,1.3,1.8,0.7,2.7
		c-0.5,1-1.8,1.3-2.7,0.7c0,0,0,0,0,0l-5.4-3.1c-1-0.5-1.3-1.8-0.7-2.7C161.2,70.5,161.8,70.1,162.6,70.1 M187.2,84.3
		c0.3,0,0.7,0.1,1,0.3l5.4,3.1c1,0.5,1.3,1.8,0.7,2.7c-0.5,1-1.8,1.3-2.7,0.7c0,0,0,0,0,0l-5.4-3.1c-1-0.5-1.3-1.8-0.7-2.7
		C185.8,84.7,186.5,84.3,187.2,84.3 M211.8,98.5c0.4,0,0.7,0.1,1,0.3l5.4,3.1c1,0.6,1.3,1.8,0.7,2.7c-0.6,1-1.8,1.3-2.7,0.7
		l-5.4-3.1c-1-0.6-1.3-1.8-0.7-2.7C210.4,98.9,211.1,98.5,211.8,98.5 M137.9,54.9L137.9,54.9c-1.7,0-3,1.3-3,3
		c0,1.1,0.6,2.1,1.5,2.6l5.4,3.1c1.4,0.8,3.3,0.3,4.1-1.1s0.3-3.3-1.1-4.1c0,0,0,0,0,0l-5.4-3.1C139,55,138.4,54.9,137.9,54.9
		L137.9,54.9z M162.6,69.1L162.6,69.1c-1.7,0-3,1.3-3,3c0,1.1,0.6,2.1,1.5,2.6l5.4,3.1c1.4,0.8,3.3,0.3,4.1-1.1
		c0.8-1.4,0.3-3.3-1.1-4.1l0,0l-5.4-3.1C163.6,69.2,163.1,69.1,162.6,69.1L162.6,69.1z M187.2,83.3L187.2,83.3c-1.7,0-3,1.3-3,3
		c0,1.1,0.6,2.1,1.5,2.6l5.4,3.1c1.4,0.8,3.3,0.3,4.1-1.1s0.3-3.3-1.1-4.1c0,0,0,0,0,0l-5.4-3.1C188.2,83.5,187.7,83.3,187.2,83.3
		L187.2,83.3z M211.8,97.5L211.8,97.5c-1.1,0-2.1,0.6-2.6,1.5c-0.8,1.4-0.3,3.3,1.1,4.1l5.4,3.1c1.4,0.8,3.3,0.3,4.1-1.1
		c0.8-1.4,0.3-3.3-1.1-4.1l-5.4-3.1C212.9,97.7,212.3,97.5,211.8,97.5L211.8,97.5z"/>
	<path class="st1" d="M150,41.4c2.2-0.8,4.6,0.3,5.4,2.5c0.8,2.2-0.3,4.6-2.5,5.4c-2.2,0.8-4.6-0.3-5.4-2.5
		C146.6,44.6,147.8,42.2,150,41.4 M107,57c2.2-0.8,4.6,0.3,5.4,2.5c0.8,2.2-0.3,4.6-2.5,5.4c-2.2,0.8-4.6-0.3-5.4-2.5
		C103.7,60.2,104.8,57.8,107,57z M192.9,25.7c2.2-0.8,4.6,0.3,5.4,2.5c0.8,2.2-0.3,4.6-2.5,5.4c-2.2,0.8-4.6-0.3-5.4-2.5
		C189.6,29,190.7,26.5,192.9,25.7z M52.1,77l24-8.7c2.2-0.8,4.6,0.3,5.4,2.5c0.8,2.2-0.3,4.6-2.5,5.4l0,0L55,85
		c-2.2,0.8-4.6-0.3-5.5-2.5S49.9,77.8,52.1,77C52.1,77,52.1,77,52.1,77z"/>
	<path class="st1" d="M161.3,59.2l24-8.7c2.2-0.8,4.6,0.3,5.4,2.5c0.8,2.2-0.3,4.6-2.5,5.4l0,0l-24,8.7c-2.2,0.8-4.6-0.3-5.5-2.5
		C158,62.4,159.1,60,161.3,59.2C161.3,59.2,161.3,59.2,161.3,59.2 M130.4,70.5c2.2-0.8,4.6,0.3,5.5,2.5c0.8,2.2-0.3,4.6-2.5,5.5
		c-2.2,0.8-4.6-0.3-5.5-2.5c0,0,0,0,0,0C127,73.7,128.1,71.3,130.4,70.5z M204.3,43.6l24-8.7c2.2-0.8,4.6,0.3,5.4,2.5
		c0.8,2.2-0.3,4.6-2.5,5.4l0,0l-24,8.7c-2.2,0.8-4.6-0.3-5.5-2.5C200.9,46.8,202,44.4,204.3,43.6C204.2,43.6,204.3,43.6,204.3,43.6z
		 M75.4,90.4l24-8.7c2.2-0.8,4.6,0.3,5.4,2.5c0.8,2.2-0.3,4.6-2.5,5.4l-24,8.7c-2.2,0.8-4.6-0.3-5.5-2.5
		C72.1,93.7,73.2,91.2,75.4,90.4C75.4,90.4,75.4,90.4,75.4,90.4L75.4,90.4z"/>
	<path class="st1" d="M175.8,76.7c2.2-0.8,4.6,0.3,5.4,2.5c0.8,2.2-0.3,4.6-2.5,5.4c-2.2,0.8-4.6-0.3-5.4-2.5
		C172.5,79.9,173.6,77.5,175.8,76.7 M132.9,92.3c2.2-0.8,4.6,0.3,5.4,2.5c0.8,2.2-0.3,4.6-2.5,5.4c-2.2,0.8-4.6-0.3-5.4-2.5
		C129.6,95.6,130.7,93.1,132.9,92.3z M261.7,45.4c2.2-0.8,4.6,0.3,5.4,2.5c0.8,2.2-0.3,4.6-2.5,5.4c-2.2,0.8-4.6-0.3-5.4-2.5
		C258.4,48.7,259.5,46.2,261.7,45.4z M218.8,61.1c2.2-0.8,4.6,0.3,5.4,2.5c0.8,2.2-0.3,4.6-2.5,5.4c-2.2,0.8-4.6-0.3-5.4-2.5
		c0,0,0,0,0,0C215.4,64.3,216.6,61.9,218.8,61.1L218.8,61.1z M78,112.3l24-8.7c2.2-0.8,4.6,0.4,5.4,2.6c0.8,2.2-0.3,4.6-2.5,5.4
		l-24,8.7c-2.2,0.8-4.6-0.3-5.4-2.5C74.6,115.6,75.8,113.1,78,112.3z"/>
	<path class="st1" d="M243.4,75.1c2.2-0.8,4.6,0.3,5.4,2.5c0.8,2.2-0.3,4.6-2.5,5.4c-2.2,0.8-4.6-0.3-5.4-2.5
		C240,78.4,241.2,76,243.4,75.1 M200.4,90.8c2.2-0.8,4.6,0.3,5.4,2.5c0.8,2.2-0.3,4.6-2.5,5.4c-2.2,0.8-4.6-0.3-5.4-2.5
		C197.1,94,198.2,91.6,200.4,90.8z M145.5,110.8l24-8.7c2.2-0.8,4.6,0.3,5.4,2.6c0.8,2.2-0.3,4.6-2.5,5.4l-24,8.7
		c-2.2,0.8-4.6-0.3-5.5-2.5C142.2,114,143.3,111.6,145.5,110.8C145.5,110.8,145.5,110.8,145.5,110.8L145.5,110.8z"/>
	<path class="st1" d="M246.7,97.3c2.2-0.8,4.6,0.3,5.4,2.5c0.8,2.2-0.3,4.6-2.5,5.4c-2.2,0.8-4.6-0.3-5.4-2.5
		C243.3,100.5,244.5,98.1,246.7,97.3 M203.7,112.9c2.2-0.8,4.6,0.3,5.4,2.5c0.8,2.2-0.3,4.6-2.5,5.4c-2.2,0.8-4.6-0.3-5.4-2.5
		C200.4,116.2,201.5,113.7,203.7,112.9z M277.7,86l24-8.7c2.2-0.8,4.6,0.3,5.4,2.6c0.8,2.2-0.3,4.6-2.5,5.4l-24,8.7
		c-2.2,0.8-4.6-0.3-5.4-2.5S275.4,86.8,277.7,86z M148.8,132.9l23.8-8.6c2.1-0.8,4.5,0.1,5.5,2.1c1,2.1,0.1,4.7-2,5.7
		c-0.1,0.1-0.2,0.1-0.4,0.1l-23.8,8.6c-2.1,0.8-4.5-0.1-5.5-2.1c-1-2.1-0.1-4.7,2-5.7C148.6,133,148.7,133,148.8,132.9z"/>
	<path d="M200,156.4h12.7c5.9,0,10.2,0.9,12.8,2.6c2.6,1.7,3.9,4.4,3.9,8.1c0.1,2.2-0.6,4.4-1.9,6.2c-1.4,1.7-3.4,2.8-5.6,3.1v0.3
		c3,0.6,5.2,1.7,6.6,3.4c1.5,1.9,2.3,4.3,2.1,6.8c0.2,3.5-1.3,6.8-4,9c-2.7,2.2-6.4,3.3-11.2,3.3H200V156.4z M207,174h6.7
		c2.9,0,5.1-0.5,6.4-1.4c1.3-0.9,2-2.5,2-4.7c0.1-1.7-0.7-3.4-2.2-4.4c-1.5-0.9-3.8-1.3-6.9-1.3H207V174z M207,179.7v13.6h7.4
		c2.9,0,5.1-0.6,6.6-1.7c1.5-1.1,2.2-2.9,2.2-5.3c0.1-1.9-0.7-3.8-2.3-5c-1.5-1.1-3.8-1.6-6.9-1.6H207z"/>
	<path d="M251.7,175.9l10.1-19.5h7.6l-14.3,26.2v16.6h-7v-16.4L234,156.4h7.6L251.7,175.9z"/>
	<path d="M272.2,180.9c0-16.8,6.8-25.1,20.5-25.1c1.8,0,3.7,0.1,5.4,0.5v5.7c-1.7-0.5-3.4-0.7-5.2-0.6c-4.6,0-8,1.2-10.3,3.7
		c-2.3,2.5-3.6,6.4-3.8,11.8h0.4c0.9-1.6,2.3-2.8,3.9-3.7c1.8-0.9,3.8-1.4,5.9-1.3c3.9,0,6.9,1.2,9.1,3.6c2.2,2.4,3.3,5.6,3.3,9.7
		c0,4.5-1.3,8-3.8,10.6s-5.9,3.9-10.3,3.9c-2.8,0.1-5.6-0.7-8-2.2c-2.3-1.6-4.2-3.8-5.2-6.4C272.8,187.9,272.1,184.4,272.2,180.9z
		 M287.2,194.1c2.1,0.1,4.1-0.7,5.5-2.3c1.4-1.9,2.1-4.2,1.9-6.5c0.1-2.1-0.5-4.1-1.8-5.8c-1.4-1.5-3.4-2.3-5.4-2.1
		c-1.4,0-2.8,0.3-4.1,1c-1.2,0.6-2.2,1.5-3,2.6c-0.7,1-1.1,2.2-1.1,3.4c-0.1,2.5,0.7,5,2.2,7C282.8,193.1,284.9,194.1,287.2,194.1z"
		/>
	<path d="M344.2,177.4c0,7.1-2,12.5-5.9,16.2c-3.9,3.7-9.6,5.6-17,5.6h-12v-42.8h13.2c6.8,0,12.1,1.8,15.9,5.5
		S344.2,170.7,344.2,177.4z M336.8,177.6c0-10.3-4.8-15.4-14.4-15.4h-6.1v31.1h5C331.7,193.3,336.8,188.1,336.8,177.6L336.8,177.6z"
		/>
	<path d="M385,199.2h-8.1l-10.7-17.5l-10.8,17.5h-7.5l14.2-22.2l-13.3-20.6h7.8l9.9,16.2l9.9-16.2h7.6l-13.4,20.7L385,199.2z"/>
	<path d="M45.8,156.4v27.7c0.1,2.9-0.6,5.8-2,8.3c-1.4,2.4-3.4,4.3-5.9,5.5c-2.9,1.3-6,2-9.2,1.9c-5.3,0-9.4-1.4-12.4-4.2
		s-4.4-6.7-4.4-11.6v-27.6h7v27.1c0,3.5,0.8,6.1,2.5,7.8s4.2,2.5,7.6,2.5c6.6,0,9.9-3.5,9.9-10.4v-27H45.8z"/>
	<path d="M81.5,187.6c0.2,3.5-1.4,6.8-4.1,9c-2.8,2.2-6.6,3.3-11.4,3.3c-4.1,0.2-8.1-0.6-11.9-2.3v-6.6c2,0.9,4.1,1.7,6.2,2.2
		c2,0.5,4.1,0.8,6.1,0.8c2.8,0,4.8-0.5,6.1-1.6c1.3-1,2-2.6,2-4.2c0-1.6-0.6-3-1.8-4.1c-1.2-1.1-3.7-2.4-7.5-4
		c-3.9-1.6-6.7-3.4-8.3-5.4c-1.6-2.1-2.5-4.7-2.4-7.3c-0.1-3.3,1.3-6.4,3.8-8.4c2.5-2.1,5.9-3.1,10.2-3.1c4.2,0,8.4,0.9,12.2,2.7
		l-2.2,5.7c-3.2-1.5-6.7-2.3-10.2-2.4c-1.8-0.1-3.7,0.4-5.2,1.5c-1.2,1-1.8,2.4-1.8,3.9c0,1,0.2,2,0.7,2.9c0.6,0.9,1.4,1.7,2.3,2.2
		c1.9,1.1,3.8,2,5.8,2.8c2.4,0.9,4.8,2.2,6.9,3.7c1.4,1,2.5,2.3,3.2,3.8C81.2,184.1,81.5,185.8,81.5,187.6z"/>
	<path d="M104.6,199.2h-7v-36.8H85v-6h32.2v6h-12.6V199.2z"/>
	<path d="M142,161.7c-3.7-0.2-7.2,1.4-9.5,4.3c-2.3,2.9-3.5,6.8-3.5,11.8c0,5.3,1.1,9.2,3.3,11.9c2.2,2.7,5.4,4,9.6,4
		c1.8,0,3.5-0.2,5.3-0.5c1.7-0.4,3.5-0.8,5.3-1.4v6c-3.7,1.3-7.5,2-11.4,1.9c-6.3,0-11.1-1.9-14.4-5.7c-3.4-3.8-5-9.2-5-16.3
		c-0.1-4,0.7-8,2.4-11.7c1.5-3.2,4-5.9,7.1-7.7c3.3-1.8,7.1-2.8,10.9-2.7c4.2,0,8.4,0.9,12.1,2.8l-2.5,5.8c-1.5-0.7-3-1.3-4.6-1.8
		C145.4,162,143.7,161.7,142,161.7z"/>
</g>
</svg>
